<svg xmlns="http://www.w3.org/2000/svg" viewBox="0 0 64 64"><g data-name="28-Ethereum"><path fill="#330c66" d="M32 23v12l-11-6 11-6z"/><path fill="#50218a" d="m43 29-11 6V23l11 6zM32 39v11L21 33l11 6zM32 14v9l-11 6 11-15z"/><path fill="#8853bf" d="M43 33 32 50V39l11-6zM32 14l11 15-11-6v-9z"/><path fill="#faab09" d="M53 32a21 21 0 1 1-21-21 21 21 0 0 1 21 21Zm-10-3L32 14 21 29l11 6ZM32 50l11-17-11 6-11-6Z"/><path fill="#f6d049" d="M32 11a20.9 20.9 0 0 0-9.968 2.514 20.788 20.788 0 0 0 .27 13.71L32 14l11 15-11 6-8.128-4.434a21.052 21.052 0 0 0 8.643 8.153L43 33l-4.93 7.62a20.884 20.884 0 0 0 13.9-2.133A20.987 20.987 0 0 0 32 11zM21.4 2.87l2.39 6.58a23.688 23.688 0 0 0-7.21 4.17l-.01-.01-4.5-5.36a31.21 31.21 0 0 1 9.33-5.39zM5.15 16.5l6.07 3.5a23.717 23.717 0 0 0-2.85 7.83h-.01l-6.89-1.21h-.01A30.944 30.944 0 0 1 5.15 16.5zM11.22 44l-6.07 3.5a30.944 30.944 0 0 1-3.69-10.12h.01l6.89-1.21h.01A23.717 23.717 0 0 0 11.22 44zm12.57 10.55-2.39 6.58v.01a31.21 31.21 0 0 1-9.33-5.39l4.5-5.36.01-.01a23.688 23.688 0 0 0 7.21 4.17zm18.81 6.58v.01A31.045 31.045 0 0 1 32 63v-7a23.789 23.789 0 0 0 8.21-1.45zM52.78 44l6.07 3.5a31.036 31.036 0 0 1-6.92 8.25l-4.5-5.36-.01-.01A23.842 23.842 0 0 0 52.78 44zm9.76-17.38a31.691 31.691 0 0 1 0 10.76h-.01l-6.89-1.21h-.01a23.684 23.684 0 0 0 0-8.34h.01l6.89-1.21zM42.6 2.86v.01l-2.39 6.58A23.789 23.789 0 0 0 32 8V1a31.045 31.045 0 0 1 10.6 1.86z"/><path fill="#f6d049" d="M58.85 16.5 52.78 20a23.842 23.842 0 0 0-5.36-6.38l.01-.01 4.5-5.36a31.036 31.036 0 0 1 6.92 8.25Z"/><path fill="#faab09" d="M32 1v7a23.789 23.789 0 0 0-8.21 1.45L21.4 2.87v-.01A31.045 31.045 0 0 1 32 1zM16.57 13.61l.01.01A23.842 23.842 0 0 0 11.22 20l-6.07-3.5a31.036 31.036 0 0 1 6.92-8.25zM8.36 27.83h.01a23.684 23.684 0 0 0 0 8.34h-.01l-6.89 1.21h-.01a31.691 31.691 0 0 1 0-10.76h.01zM11.22 44a23.842 23.842 0 0 0 5.36 6.38l-.01.01-4.5 5.36a31.036 31.036 0 0 1-6.92-8.25zM32 56v7a31.045 31.045 0 0 1-10.6-1.86v-.01l2.39-6.58A23.789 23.789 0 0 0 32 56zm15.43-5.61 4.5 5.36a31.21 31.21 0 0 1-9.33 5.39v-.01l-2.39-6.58a23.688 23.688 0 0 0 7.21-4.17zm15.1-13.01h.01a30.944 30.944 0 0 1-3.69 10.12L52.78 44a23.717 23.717 0 0 0 2.85-7.83h.01zm.01-10.76h-.01l-6.89 1.21h-.01A23.717 23.717 0 0 0 52.78 20l6.07-3.5a30.944 30.944 0 0 1 3.69 10.12zM51.93 8.25l-4.5 5.36-.01.01a23.688 23.688 0 0 0-7.21-4.17l2.39-6.58v-.01a31.21 31.21 0 0 1 9.33 5.39z"/><path fill="#f06800" d="m20.521 29.878 11 6a1 1 0 0 0 .958 0l11-6a1 1 0 0 0 .328-1.47l-11-15a1.039 1.039 0 0 0-1.614 0l-11 15a1 1 0 0 0 .328 1.47ZM32 14l11 15-11 6-11-6Z"/><path fill="#f06800" d="M43.733 32.32a1 1 0 0 0-1.212-.2L32 37.861l-10.521-5.739a1 1 0 0 0-1.319 1.421l11 17a1 1 0 0 0 1.68 0l11-17a1 1 0 0 0-.107-1.223ZM32 50 21 33l11 6 11-6Z"/><path fill="#5c2e96" d="M32 8a24 24 0 1 0 24 24A24 24 0 0 0 32 8Zm0 45a21 21 0 1 1 21-21 21 21 0 0 1-21 21Z"/><path fill="#faab09" d="M16.58 13.62a23.688 23.688 0 0 1 7.21-4.17l-.69-1.887a25.965 25.965 0 0 0-7.814 4.523l1.28 1.524zM8.37 27.83A23.717 23.717 0 0 1 11.22 20l-1.733-1A25.8 25.8 0 0 0 6.4 27.486l1.961.344zm0 8.34h-.01l-1.96.344A25.8 25.8 0 0 0 9.487 45l1.733-1a23.717 23.717 0 0 1-2.85-7.83zm8.21 14.21-.01.01-1.28 1.524a25.965 25.965 0 0 0 7.81 4.523l.686-1.887a23.688 23.688 0 0 1-7.206-4.17zM32 56v2a25.941 25.941 0 0 0 8.9-1.563l-.69-1.887A23.789 23.789 0 0 1 32 56zm15.42-5.62.01.01 1.28 1.524A26.093 26.093 0 0 0 54.513 45l-1.733-1a23.842 23.842 0 0 1-5.36 6.38zm8.21-22.55a23.684 23.684 0 0 1 0 8.34h.01l1.961.344a25.734 25.734 0 0 0 0-9.028l-1.961.344zM40.21 9.45l.69-1.887A25.941 25.941 0 0 0 32 6v2a23.789 23.789 0 0 1 8.21 1.45zm7.21 4.17A23.842 23.842 0 0 1 52.78 20l1.733-1a26.093 26.093 0 0 0-5.8-6.915L47.43 13.61z"/><path fill="#f08400" d="M32 8V6a25.941 25.941 0 0 0-8.9 1.563l.69 1.887A23.789 23.789 0 0 1 32 8zm-15.42 5.62-.01-.01-1.28-1.524A26.093 26.093 0 0 0 9.487 19l1.733 1a23.842 23.842 0 0 1 5.36-6.38zM8.37 36.17a23.684 23.684 0 0 1 0-8.34h-.01l-1.96-.344a25.734 25.734 0 0 0 0 9.028l1.96-.344zm8.21 14.21A23.842 23.842 0 0 1 11.22 44l-1.733 1a26.093 26.093 0 0 0 5.8 6.915l1.28-1.524zm7.21 4.17-.69 1.887A25.941 25.941 0 0 0 32 58v-2a23.789 23.789 0 0 1-8.21-1.45zm23.63-4.17a23.688 23.688 0 0 1-7.21 4.17l.686 1.887a25.965 25.965 0 0 0 7.814-4.523l-1.28-1.524zm8.21-14.21A23.717 23.717 0 0 1 52.78 44l1.733 1a25.8 25.8 0 0 0 3.087-8.486l-1.96-.344zM52.78 20a23.717 23.717 0 0 1 2.85 7.83h.01l1.961-.344A25.8 25.8 0 0 0 54.513 19zm-5.36-6.38.01-.01 1.28-1.524a25.965 25.965 0 0 0-7.81-4.523l-.69 1.887a23.688 23.688 0 0 1 7.21 4.17z"/><path fill="#fff382" d="M22.08 4.742 21.4 2.87v-.01a31.21 31.21 0 0 0-9.33 5.39l1.292 1.538a28.981 28.981 0 0 1 8.718-5.046zM3.444 26.967A28.807 28.807 0 0 1 6.888 17.5l-1.738-1a30.944 30.944 0 0 0-3.69 10.12h.01zm0 10.066-1.974.347h-.01A30.944 30.944 0 0 0 5.15 47.5l1.738-1a28.807 28.807 0 0 1-3.444-9.467zM22.08 59.258a28.981 28.981 0 0 1-8.718-5.046L12.07 55.75a31.21 31.21 0 0 0 9.33 5.39v-.01zm19.84 0A28.96 28.96 0 0 1 32 61v2a31.045 31.045 0 0 0 10.6-1.86v-.01zm8.718-5.046 1.292 1.538a31.036 31.036 0 0 0 6.92-8.25l-1.738-1a29.124 29.124 0 0 1-6.474 7.712zM62.54 26.62h-.01l-1.974.347a28.748 28.748 0 0 1 0 10.066l1.974.347h.01a31.691 31.691 0 0 0 0-10.76zM41.92 4.742l.68-1.872v-.01A31.045 31.045 0 0 0 32 1v2a28.96 28.96 0 0 1 9.92 1.742zM57.112 17.5l1.738-1a31.036 31.036 0 0 0-6.92-8.25l-1.292 1.538a29.124 29.124 0 0 1 6.474 7.712z"/><path fill="#f6d049" d="M22.08 4.742A28.96 28.96 0 0 1 32 3V1a31.045 31.045 0 0 0-10.6 1.86v.01zm-8.718 5.046L12.07 8.25a31.036 31.036 0 0 0-6.92 8.25l1.738 1a29.124 29.124 0 0 1 6.474-7.712zM3.444 37.033a28.748 28.748 0 0 1 0-10.066L1.47 26.62h-.01a31.691 31.691 0 0 0 0 10.76h.01zM6.888 46.5l-1.738 1a31.036 31.036 0 0 0 6.92 8.25l1.292-1.538A29.124 29.124 0 0 1 6.888 46.5zM22.08 59.258l-.68 1.872v.01A31.045 31.045 0 0 0 32 63v-2a28.96 28.96 0 0 1-9.92-1.742zm19.84 0 .68 1.872v.01a31.21 31.21 0 0 0 9.33-5.39l-1.292-1.538a28.981 28.981 0 0 1-8.718 5.046zm18.636-22.225a28.807 28.807 0 0 1-3.444 9.467l1.738 1a30.944 30.944 0 0 0 3.69-10.12h-.01zm0-10.066 1.974-.347h.01a30.944 30.944 0 0 0-3.69-10.12l-1.738 1a28.807 28.807 0 0 1 3.444 9.467zM41.92 4.742a28.981 28.981 0 0 1 8.718 5.046L51.93 8.25a31.21 31.21 0 0 0-9.33-5.39v.01z"/></g></svg>