<svg width="800" height="800" viewBox="0 0 800 800" fill="none" xmlns="http://www.w3.org/2000/svg">
<g clip-path="url(#clip0_16_5923)">
<path d="M464.574 172.197L556.107 0H243.828L335.378 172.197H464.574Z" fill="black"/>
<path d="M613.194 22.3128C606.324 9.29851 595.097 9.30658 588.246 22.329L438.007 307.786C491.843 315.567 540.545 339.427 579.066 374.337L676.487 189.543C683.35 176.526 683.345 155.227 676.476 142.213L613.194 22.3128Z" fill="black"/>
<path d="M361.931 307.667L211.748 22.329C204.896 9.30658 193.668 9.29851 186.801 22.3128L123.522 142.213C116.655 155.227 116.65 176.526 123.511 189.543L220.646 373.794C259.269 339.002 308.047 315.284 361.931 307.667Z" fill="black"/>
<path d="M399.556 345.145C273.947 345.145 172.125 446.967 172.125 572.574C172.125 698.175 273.949 799.997 399.556 799.997C525.158 799.997 626.98 698.172 626.98 572.574C626.98 446.967 525.158 345.145 399.556 345.145ZM399.556 734.864C310.062 734.864 237.261 662.06 237.261 572.576C237.261 483.085 310.065 410.283 399.556 410.283C489.042 410.283 561.841 483.088 561.841 572.576C561.844 662.06 489.042 734.864 399.556 734.864Z" fill="#BF0000"/>
<path d="M399.556 450.414C332.189 450.414 277.393 505.213 277.393 572.574C277.393 639.927 332.189 694.726 399.556 694.726C466.909 694.726 521.706 639.927 521.706 572.574C521.708 505.213 466.909 450.414 399.556 450.414Z" fill="#BF0000"/>
</g>
<defs>
<clipPath id="clip0_16_5923">
<rect width="800" height="800" fill="white"/>
</clipPath>
</defs>
</svg>
